999
dxflib 2.0.4.8
  0
SECTION
  2
HEADER
  9
$ACADVER
  1
AC1015
  9
$HANDSEED
  5
FFFF
  9
$DIMASZ
 40
0.5
  9
$GRIDUNIT
 10
1.0
 20
1.0
  9
$DIMADEC
 70
2
  9
$DIMGAP
 40
0.625
  9
$SPLINESEGS
 70
8
  9
$AUPREC
 70
2
  9
$LUNITS
 70
2
  9
$DIMEXO
 40
0.625
  9
$INSUNITS
 70
4
  9
$DIMLUNIT
 70
2
  9
$DIMTXT
 40
0.5
  9
$GRIDMODE
 70
1
  9
$LUPREC
 70
4
  9
$DIMSTYLE
  2
Standard
  9
$PLIMMAX
 10
210.0
 20
297.0
  9
$PLIMMIN
 10
0.0
 20
0.0
  9
$DIMEXE
 40
1.25
  9
$PINSBASE
 10
20.75
 20
57.5
 30
0.0
  9
$DIMAUNIT
 70
0
  9
$AUNITS
 70
0
  0
ENDSEC
  0
SECTION
  2
TABLES
  0
TABLE
  2
VPORT
  5
8
100
AcDbSymbolTable
 70
1
  0
VPORT
  5
30
100
AcDbSymbolTableRecord
100
AcDbViewportTableRecord
  2
*Active
 70
0
 10
0.0
 20
0.0
 11
1.0
 21
1.0
 12
286.3055555555554861
 22
148.5
 13
0.0
 23
0.0
 14
10.0
 24
10.0
 15
10.0
 25
10.0
 16
0.0
 26
0.0
 36
1.0
 17
0.0
 27
0.0
 37
0.0
 40
297.0
 41
1.92798353909465
 42
50.0
 43
0.0
 44
0.0
 50
0.0
 51
0.0
 71
0
 72
100
 73
1
 74
3
 75
1
 76
1
 77
0
 78
0
281
0
 65
1
110
0.0
120
0.0
130
0.0
111
1.0
121
0.0
131
0.0
112
0.0
122
1.0
132
0.0
 79
0
146
0.0
  0
ENDTAB
  0
TABLE
  2
LTYPE
  5
5
100
AcDbSymbolTable
 70
21
  0
LTYPE
  5
14
100
AcDbSymbolTableRecord
100
AcDbLinetypeTableRecord
  2
ByBlock
 70
0
  3

 72
65
 73
0
 40
0.0
  0
LTYPE
  5
15
100
AcDbSymbolTableRecord
100
AcDbLinetypeTableRecord
  2
ByLayer
 70
0
  3

 72
65
 73
0
 40
0.0
  0
LTYPE
  5
16
100
AcDbSymbolTableRecord
100
AcDbLinetypeTableRecord
  2
CONTINUOUS
 70
0
  3
Solid line
 72
65
 73
0
 40
0.0
  0
LTYPE
  5
31
100
AcDbSymbolTableRecord
100
AcDbLinetypeTableRecord
  2
DOT
 70
0
  3
Dot . . . . . . . . . . . . . . . . . . . . . .
 72
65
 73
2
 40
6.3499999999999996
 49
0.0
 74
0
 49
-6.3499999999999996
 74
0
  0
LTYPE
  5
32
100
AcDbSymbolTableRecord
100
AcDbLinetypeTableRecord
  2
DOT2
 70
0
  3
Dot (.5x) .....................................
 72
65
 73
2
 40
3.1749999999999998
 49
0.0
 74
0
 49
-3.1749999999999998
 74
0
  0
LTYPE
  5
33
100
AcDbSymbolTableRecord
100
AcDbLinetypeTableRecord
  2
DOTX2
 70
0
  3
Dot (2x) .  .  .  .  .  .  .  .  .  .  .  .  .
 72
65
 73
2
 40
12.6999999999999993
 49
0.0
 74
0
 49
-12.6999999999999993
 74
0
  0
LTYPE
  5
34
100
AcDbSymbolTableRecord
100
AcDbLinetypeTableRecord
  2
DASHED
 70
0
  3
Dashed __ __ __ __ __ __ __ __ __ __ __ __ __ _
 72
65
 73
2
 40
19.0500000000000007
 49
12.6999999999999993
 74
0
 49
-6.3499999999999996
 74
0
  0
LTYPE
  5
35
100
AcDbSymbolTableRecord
100
AcDbLinetypeTableRecord
  2
DASHED2
 70
0
  3
Dashed (.5x) _ _ _ _ _ _ _ _ _ _ _ _ _ _ _ _ _
 72
65
 73
2
 40
9.5250000000000004
 49
6.3499999999999996
 74
0
 49
-3.1749999999999998
 74
0
  0
LTYPE
  5
36
100
AcDbSymbolTableRecord
100
AcDbLinetypeTableRecord
  2
DASHEDX2
 70
0
  3
Dashed (2x) ____  ____  ____  ____  ____  ___
 72
65
 73
2
 40
38.1000000000000014
 49
25.3999999999999986
 74
0
 49
-12.6999999999999993
 74
0
  0
LTYPE
  5
37
100
AcDbSymbolTableRecord
100
AcDbLinetypeTableRecord
  2
DASHDOT
 70
0
  3
Dash dot __ . __ . __ . __ . __ . __ . __ . __
 72
65
 73
4
 40
25.3999999999999986
 49
12.6999999999999993
 74
0
 49
-6.3499999999999996
 74
0
 49
0.0
 74
0
 49
-6.3499999999999996
 74
0
  0
LTYPE
  5
38
100
AcDbSymbolTableRecord
100
AcDbLinetypeTableRecord
  2
DASHDOT2
 70
0
  3
Dash dot (.5x) _._._._._._._._._._._._._._._.
 72
65
 73
4
 40
12.6999999999999993
 49
6.3499999999999996
 74
0
 49
-3.1749999999999998
 74
0
 49
0.0
 74
0
 49
-3.1749999999999998
 74
0
  0
LTYPE
  5
39
100
AcDbSymbolTableRecord
100
AcDbLinetypeTableRecord
  2
DASHDOTX2
 70
0
  3
Dash dot (2x) ____  .  ____  .  ____  .  ___
 72
65
 73
4
 40
50.7999999999999972
 49
25.3999999999999986
 74
0
 49
-12.6999999999999993
 74
0
 49
0.0
 74
0
 49
-12.6999999999999993
 74
0
  0
LTYPE
  5
3A
100
AcDbSymbolTableRecord
100
AcDbLinetypeTableRecord
  2
DIVIDE
 70
0
  3
Divide ____ . . ____ . . ____ . . ____ . . ____
 72
65
 73
6
 40
31.75
 49
12.6999999999999993
 74
0
 49
-6.3499999999999996
 74
0
 49
0.0
 74
0
 49
-6.3499999999999996
 74
0
 49
0.0
 74
0
 49
-6.3499999999999996
 74
0
  0
LTYPE
  5
3B
100
AcDbSymbolTableRecord
100
AcDbLinetypeTableRecord
  2
DIVIDE2
 70
0
  3
Divide (.5x) __..__..__..__..__..__..__..__.._
 72
65
 73
6
 40
15.875
 49
6.3499999999999996
 74
0
 49
-3.1749999999999998
 74
0
 49
0.0
 74
0
 49
-3.1749999999999998
 74
0
 49
0.0
 74
0
 49
-3.1749999999999998
 74
0
  0
LTYPE
  5
3C
100
AcDbSymbolTableRecord
100
AcDbLinetypeTableRecord
  2
DIVIDEX2
 70
0
  3
Divide (2x) ________  .  .  ________  .  .  _
 72
65
 73
6
 40
63.5
 49
25.3999999999999986
 74
0
 49
-12.6999999999999993
 74
0
 49
0.0
 74
0
 49
-12.6999999999999993
 74
0
 49
0.0
 74
0
 49
-12.6999999999999993
 74
0
  0
LTYPE
  5
3D
100
AcDbSymbolTableRecord
100
AcDbLinetypeTableRecord
  2
CENTER
 70
0
  3
Center ____ _ ____ _ ____ _ ____ _ ____ _ ____
 72
65
 73
4
 40
50.7999999999999972
 49
31.75
 74
0
 49
-6.3499999999999996
 74
0
 49
6.3499999999999996
 74
0
 49
-6.3499999999999996
 74
0
  0
LTYPE
  5
3E
100
AcDbSymbolTableRecord
100
AcDbLinetypeTableRecord
  2
CENTER2
 70
0
  3
Center (.5x) ___ _ ___ _ ___ _ ___ _ ___ _ ___
 72
65
 73
4
 40
28.5749999999999993
 49
19.0500000000000007
 74
0
 49
-3.1749999999999998
 74
0
 49
3.1749999999999998
 74
0
 49
-3.1749999999999998
 74
0
  0
LTYPE
  5
3F
100
AcDbSymbolTableRecord
100
AcDbLinetypeTableRecord
  2
CENTERX2
 70
0
  3
Center (2x) ________  __  ________  __  _____
 72
65
 73
4
 40
101.5999999999999943
 49
63.5
 74
0
 49
-12.6999999999999993
 74
0
 49
12.6999999999999993
 74
0
 49
-12.6999999999999993
 74
0
  0
LTYPE
  5
40
100
AcDbSymbolTableRecord
100
AcDbLinetypeTableRecord
  2
BORDER
 70
0
  3
Border __ __ . __ __ . __ __ . __ __ . __ __ .
 72
65
 73
6
 40
44.4500000000000028
 49
12.6999999999999993
 74
0
 49
-6.3499999999999996
 74
0
 49
12.6999999999999993
 74
0
 49
-6.3499999999999996
 74
0
 49
0.0
 74
0
 49
-6.3499999999999996
 74
0
  0
LTYPE
  5
41
100
AcDbSymbolTableRecord
100
AcDbLinetypeTableRecord
  2
BORDER2
 70
0
  3
Border (.5x) __.__.__.__.__.__.__.__.__.__.__.
 72
65
 73
6
 40
22.2250000000000014
 49
6.3499999999999996
 74
0
 49
-3.1749999999999998
 74
0
 49
6.3499999999999996
 74
0
 49
-3.1749999999999998
 74
0
 49
0.0
 74
0
 49
-3.1749999999999998
 74
0
  0
LTYPE
  5
42
100
AcDbSymbolTableRecord
100
AcDbLinetypeTableRecord
  2
BORDERX2
 70
0
  3
Border (2x) ____  ____  .  ____  ____  .  ___
 72
65
 73
6
 40
88.9000000000000057
 49
25.3999999999999986
 74
0
 49
-12.6999999999999993
 74
0
 49
25.3999999999999986
 74
0
 49
-12.6999999999999993
 74
0
 49
0.0
 74
0
 49
-12.6999999999999993
 74
0
  0
ENDTAB
  0
TABLE
  2
LAYER
  5
2
100
AcDbSymbolTable
 70
4
  0
LAYER
  5
10
100
AcDbSymbolTableRecord
100
AcDbLayerTableRecord
  2
0
 70
0
 62
7
  6
CONTINUOUS
370
5
390
F
  0
LAYER
  5
43
100
AcDbSymbolTableRecord
100
AcDbLayerTableRecord
  2
dimensions
 70
0
 62
7
  6
CONTINUOUS
370
0
390
F
  0
LAYER
  5
44
100
AcDbSymbolTableRecord
100
AcDbLayerTableRecord
  2
hatch
 70
0
 62
7
  6
CONTINUOUS
370
0
390
F
  0
LAYER
  5
45
100
AcDbSymbolTableRecord
100
AcDbLayerTableRecord
  2
centres
 70
0
 62
7
  6
CENTER2
370
0
390
F
  0
ENDTAB
  0
TABLE
  2
STYLE
  5
3
100
AcDbSymbolTable
 70
1
  0
STYLE
  5
11
100
AcDbSymbolTableRecord
100
AcDbTextStyleTableRecord
  2
Standard
 70
0
 40
0.0
 41
0.75
 50
0.0
 71
0
 42
2.5
  3
txt
  4

  0
ENDTAB
  0
TABLE
  2
VIEW
  5
6
100
AcDbSymbolTable
 70
0
  0
ENDTAB
  0
TABLE
  2
UCS
  5
7
100
AcDbSymbolTable
 70
0
  0
ENDTAB
  0
TABLE
  2
APPID
  5
9
100
AcDbSymbolTable
 70
1
  0
APPID
  5
12
100
AcDbSymbolTableRecord
100
AcDbRegAppTableRecord
  2
ACAD
 70
0
  0
ENDTAB
  0
TABLE
  2
DIMSTYLE
  5
A
100
AcDbSymbolTable
 70
1
100
AcDbDimStyleTable
 71
0
  0
DIMSTYLE
105
27
100
AcDbSymbolTableRecord
100
AcDbDimStyleTableRecord
  2
Standard
 41
0.5
 42
0.625
 43
3.75
 44
1.25
 70
0
 73
0
 74
0
 77
1
 78
8
140
0.5
141
2.5
143
0.03937007874016
147
0.625
171
3
172
1
271
2
272
2
274
3
278
44
283
0
284
8
340
11
  0
ENDTAB
  0
TABLE
  2
BLOCK_RECORD
  5
1
100
AcDbSymbolTable
 70
1
  0
BLOCK_RECORD
  5
1F
100
AcDbSymbolTableRecord
100
AcDbBlockTableRecord
  2
*Model_Space
340
22
  0
BLOCK_RECORD
  5
1B
100
AcDbSymbolTableRecord
100
AcDbBlockTableRecord
  2
*Paper_Space
340
1E
  0
BLOCK_RECORD
  5
23
100
AcDbSymbolTableRecord
100
AcDbBlockTableRecord
  2
*Paper_Space0
340
26
  0
ENDTAB
  0
ENDSEC
  0
SECTION
  2
BLOCKS
  0
BLOCK
  5
20
100
AcDbEntity
  8
0
100
AcDbBlockBegin
  2
*Model_Space
 70
0
 10
0.0
 20
0.0
 30
0.0
  3
*Model_Space
  1

  0
ENDBLK
  5
21
100
AcDbEntity
  8
0
100
AcDbBlockEnd
  0
BLOCK
  5
1C
100
AcDbEntity
 67
1
  8
0
100
AcDbBlockBegin
  2
*Paper_Space
 70
0
 10
0.0
 20
0.0
 30
0.0
  3
*Paper_Space
  1

  0
ENDBLK
  5
1D
100
AcDbEntity
 67
1
  8
0
100
AcDbBlockEnd
  0
BLOCK
  5
24
100
AcDbEntity
  8
0
100
AcDbBlockBegin
  2
*Paper_Space0
 70
0
 10
0.0
 20
0.0
 30
0.0
  3
*Paper_Space0
  1

  0
ENDBLK
  5
25
100
AcDbEntity
  8
0
100
AcDbBlockEnd
  0
ENDSEC
  0
SECTION
  2
ENTITIES
  0
HATCH
  5
46
  8
hatch
 62
256
370
-1
  6
ByLayer
100
AcDbEntity
100
AcDbHatch
 10
0.0
 20
0.0
 30
0.0
210
0.0
220
0.0
230
1.0
  2
ansi31
 70
0
 71
0
 91
1
 92
1
 93
4
 72
1
 10
80.0
 20
100.5
 11
81.0
 21
100.5
 72
1
 10
81.0
 20
100.5
 11
81.0
 21
102.5
 72
1
 10
81.0
 20
102.5
 11
80.0
 21
102.5
 72
1
 10
80.0
 20
102.5
 11
80.0
 21
100.5
 97
0
 75
0
 76
1
 52
1.5707963267948966
 41
0.3
 77
0
 78
1
 53
45.0
 43
0.0
 44
0.0
 45
-0.0883883476483184
 46
0.0883883476483185
 79
0
 98
0
  0
HATCH
  5
47
  8
hatch
 62
256
370
-1
  6
ByLayer
100
AcDbEntity
100
AcDbHatch
 10
0.0
 20
0.0
 30
0.0
210
0.0
220
0.0
230
1.0
  2
ansi31
 70
0
 71
0
 91
1
 92
1
 93
9
 72
1
 10
80.0
 20
95.0
 11
80.0
 21
93.5
 72
1
 10
80.0
 20
93.5
 11
83.0
 21
93.5
 72
1
 10
83.0
 20
93.5
 11
83.0
 21
91.5
 72
1
 10
83.0
 20
91.5
 11
83.75
 21
91.5
 72
1
 10
83.75
 20
91.5
 11
83.75
 21
96.0
 72
1
 10
83.75
 20
96.0
 11
82.5
 21
96.0
 72
1
 10
82.5
 20
96.0
 11
82.5
 21
96.5
 72
1
 10
82.5
 20
96.5
 11
80.0
 21
96.5
 72
1
 10
80.0
 20
96.5
 11
80.0
 21
95.0
 97
0
 75
0
 76
1
 52
1.5707963267948966
 41
0.3
 77
0
 78
1
 53
45.0
 43
0.0
 44
0.0
 45
-0.0883883476483184
 46
0.0883883476483185
 79
0
 98
0
  0
HATCH
  5
48
  8
hatch
 62
256
370
-1
  6
ByLayer
100
AcDbEntity
100
AcDbHatch
 10
0.0
 20
0.0
 30
0.0
210
0.0
220
0.0
230
1.0
  2
ansi31
 70
0
 71
0
 91
1
 92
1
 93
13
 72
1
 10
88.0
 20
93.5
 11
88.0
 21
102.5
 72
1
 10
88.0
 20
102.5
 11
87.0
 21
102.5
 72
1
 10
87.0
 20
102.5
 11
87.0
 21
99.5
 72
1
 10
87.0
 20
99.5
 11
85.5
 21
98.5
 72
1
 10
85.5
 20
98.5
 11
85.5
 21
96.0
 72
1
 10
85.5
 20
96.0
 11
84.3535533905932766
 21
96.0
 72
1
 10
84.3535533905932766
 20
96.0
 11
85.4267766952966383
 21
94.9267766952966383
 72
1
 10
85.4267766952966383
 20
94.9267766952966383
 11
85.0732233047033617
 21
94.5732233047033617
 72
1
 10
85.0732233047033617
 20
94.5732233047033617
 11
84.25
 21
95.3964466094067234
 72
1
 10
84.25
 20
95.3964466094067234
 11
84.25
 21
91.5
 72
1
 10
84.25
 20
91.5
 11
85.0
 21
91.5
 72
1
 10
85.0
 20
91.5
 11
85.0
 21
93.5
 72
1
 10
85.0
 20
93.5
 11
88.0
 21
93.5
 97
0
 75
0
 76
1
 52
1.5707963267948966
 41
0.3
 77
0
 78
1
 53
45.0
 43
0.0
 44
0.0
 45
-0.0883883476483184
 46
0.0883883476483185
 79
0
 98
0
  0
HATCH
  5
49
  8
hatch
 62
256
370
-1
  6
ByLayer
100
AcDbEntity
100
AcDbHatch
 10
0.0
 20
0.0
 30
0.0
210
0.0
220
0.0
230
1.0
  2
ansi31
 70
0
 71
0
 91
1
 92
1
 93
14
 72
1
 10
81.0
 20
120.0
 11
81.0
 21
114.0
 72
1
 10
81.0
 20
114.0
 11
83.0
 21
112.6666666666666714
 72
1
 10
83.0
 20
112.6666666666666714
 11
83.0
 21
109.5
 72
1
 10
83.0
 20
109.5
 11
83.0
 21
108.0
 72
1
 10
83.0
 20
108.0
 11
83.75
 21
107.25
 72
1
 10
83.75
 20
107.25
 11
83.75
 21
106.6035533905932766
 72
1
 10
83.75
 20
106.6035533905932766
 11
82.5
 21
107.8535533905932766
 72
1
 10
82.5
 20
107.8535533905932766
 11
82.5
 21
109.5
 72
1
 10
82.5
 20
109.5
 11
81.5
 21
109.5
 72
1
 10
81.5
 20
109.5
 11
81.5
 21
110.0
 72
1
 10
81.5
 20
110.0
 11
81.5
 21
112.5
 72
1
 10
81.5
 20
112.5
 11
80.0
 21
112.5
 72
1
 10
80.0
 20
112.5
 11
80.0
 21
120.0
 72
1
 10
80.0
 20
120.0
 11
81.0
 21
120.0
 97
0
 75
0
 76
1
 52
0.0
 41
0.3
 77
0
 78
1
 53
45.0
 43
0.0
 44
0.0
 45
-0.0883883476483184
 46
0.0883883476483185
 79
0
 98
0
  0
HATCH
  5
4A
  8
hatch
 62
256
370
-1
  6
ByLayer
100
AcDbEntity
100
AcDbHatch
 10
0.0
 20
0.0
 30
0.0
210
0.0
220
0.0
230
1.0
  2
ansi31
 70
0
 71
0
 91
1
 92
1
 93
14
 72
1
 10
87.0
 20
114.0
 11
87.0
 21
120.0
 72
1
 10
87.0
 20
120.0
 11
88.0
 21
120.0
 72
1
 10
88.0
 20
120.0
 11
88.0
 21
112.5
 72
1
 10
88.0
 20
112.5
 11
86.5
 21
112.5
 72
1
 10
86.5
 20
112.5
 11
86.5
 21
110.0
 72
1
 10
86.5
 20
110.0
 11
86.5
 21
109.5
 72
1
 10
86.5
 20
109.5
 11
85.5
 21
109.5
 72
1
 10
85.5
 20
109.5
 11
85.5
 21
106.0
 72
1
 10
85.5
 20
106.0
 11
84.25
 21
106.0
 72
1
 10
84.25
 20
106.0
 11
84.25
 21
107.25
 72
1
 10
84.25
 20
107.25
 11
85.0
 21
108.0
 72
1
 10
85.0
 20
108.0
 11
85.0
 21
109.5
 72
1
 10
85.0
 20
109.5
 11
85.0
 21
112.6666666666666714
 72
1
 10
85.0
 20
112.6666666666666714
 11
87.0
 21
114.0
 97
0
 75
0
 76
1
 52
0.0
 41
0.3
 77
0
 78
1
 53
45.0
 43
0.0
 44
0.0
 45
-0.0883883476483184
 46
0.0883883476483185
 79
0
 98
0
  0
HATCH
  5
4B
  8
hatch
 62
256
370
-1
  6
ByLayer
100
AcDbEntity
100
AcDbHatch
 10
0.0
 20
0.0
 30
0.0
210
0.0
220
0.0
230
1.0
  2
ansi31
 70
0
 71
0
 91
1
 92
1
 93
3
 72
1
 10
82.5
 20
107.1464466094067234
 11
83.6464466094067234
 21
106.0
 72
1
 10
83.6464466094067234
 20
106.0
 11
82.5
 21
106.0
 72
1
 10
82.5
 20
106.0
 11
82.5
 21
107.1464466094067234
 97
0
 75
0
 76
1
 52
0.0
 41
0.3
 77
0
 78
1
 53
45.0
 43
0.0
 44
0.0
 45
-0.0883883476483184
 46
0.0883883476483185
 79
0
 98
0
  0
LINE
  5
4C
100
AcDbEntity
100
AcDbLine
  8
0
 62
256
370
9
  6
ByLayer
 10
81.0
 20
120.0
 30
0.0
 11
81.0
 21
114.0
 31
0.0
  0
LINE
  5
4D
100
AcDbEntity
100
AcDbLine
  8
0
 62
256
370
9
  6
ByLayer
 10
81.0
 20
114.0
 30
0.0
 11
87.0
 21
114.0
 31
0.0
  0
LINE
  5
4E
100
AcDbEntity
100
AcDbLine
  8
0
 62
256
370
9
  6
ByLayer
 10
87.0
 20
114.0
 30
0.0
 11
87.0
 21
120.0
 31
0.0
  0
LINE
  5
4F
100
AcDbEntity
100
AcDbLine
  8
0
 62
256
370
9
  6
ByLayer
 10
81.5
 20
120.0
 30
0.0
 11
81.5
 21
114.0
 31
0.0
  0
LINE
  5
50
100
AcDbEntity
100
AcDbLine
  8
0
 62
256
370
9
  6
ByLayer
 10
86.5
 20
120.0
 30
0.0
 11
86.5
 21
114.0
 31
0.0
  0
LINE
  5
51
100
AcDbEntity
100
AcDbLine
  8
0
 62
256
370
9
  6
ByLayer
 10
81.0
 20
112.5
 30
0.0
 11
81.0
 21
110.0
 31
0.0
  0
LINE
  5
52
100
AcDbEntity
100
AcDbLine
  8
0
 62
256
370
9
  6
ByLayer
 10
87.0
 20
112.5
 30
0.0
 11
87.0
 21
110.0
 31
0.0
  0
LINE
  5
53
100
AcDbEntity
100
AcDbLine
  8
0
 62
256
370
9
  6
ByLayer
 10
86.5
 20
110.0
 30
0.0
 11
86.5
 21
112.5
 31
0.0
  0
LINE
  5
54
100
AcDbEntity
100
AcDbLine
  8
0
 62
256
370
9
  6
ByLayer
 10
81.5
 20
110.0
 30
0.0
 11
81.5
 21
112.5
 31
0.0
  0
LINE
  5
55
100
AcDbEntity
100
AcDbLine
  8
0
 62
256
370
9
  6
ByLayer
 10
80.0
 20
112.5
 30
0.0
 11
81.5
 21
112.5
 31
0.0
  0
LINE
  5
56
100
AcDbEntity
100
AcDbLine
  8
0
 62
256
370
9
  6
ByLayer
 10
86.5
 20
112.5
 30
0.0
 11
88.0
 21
112.5
 31
0.0
  0
LINE
  5
57
100
AcDbEntity
100
AcDbLine
  8
0
 62
256
370
9
  6
ByLayer
 10
80.0
 20
112.5
 30
0.0
 11
80.0
 21
120.0
 31
0.0
  0
LINE
  5
58
100
AcDbEntity
100
AcDbLine
  8
0
 62
256
370
9
  6
ByLayer
 10
88.0
 20
120.0
 30
0.0
 11
88.0
 21
112.5
 31
0.0
  0
LINE
  5
59
100
AcDbEntity
100
AcDbLine
  8
0
 62
256
370
9
  6
ByLayer
 10
81.0
 20
114.0
 30
0.0
 11
83.0
 21
112.6666666666666714
 31
0.0
  0
LINE
  5
5A
100
AcDbEntity
100
AcDbLine
  8
0
 62
256
370
9
  6
ByLayer
 10
85.0
 20
112.6666666666666714
 30
0.0
 11
87.0
 21
114.0
 31
0.0
  0
LINE
  5
5B
100
AcDbEntity
100
AcDbLine
  8
0
 62
256
370
9
  6
ByLayer
 10
83.0
 20
112.6666666666666714
 30
0.0
 11
85.0
 21
112.6666666666666714
 31
0.0
  0
LINE
  5
5C
100
AcDbEntity
100
AcDbLine
  8
0
 62
256
370
9
  6
ByLayer
 10
81.0
 20
110.0
 30
0.0
 11
81.0
 21
109.5
 31
0.0
  0
LINE
  5
5D
100
AcDbEntity
100
AcDbLine
  8
0
 62
256
370
9
  6
ByLayer
 10
87.0
 20
109.5
 30
0.0
 11
87.0
 21
110.0
 31
0.0
  0
LINE
  5
5E
100
AcDbEntity
100
AcDbLine
  8
0
 62
256
370
9
  6
ByLayer
 10
86.5
 20
110.0
 30
0.0
 11
86.5
 21
109.5
 31
0.0
  0
LINE
  5
5F
100
AcDbEntity
100
AcDbLine
  8
0
 62
256
370
9
  6
ByLayer
 10
81.5
 20
110.0
 30
0.0
 11
81.5
 21
109.5
 31
0.0
  0
LINE
  5
60
100
AcDbEntity
100
AcDbLine
  8
0
 62
256
370
9
  6
ByLayer
 10
81.5
 20
100.0
 30
0.0
 11
81.5
 21
102.5
 31
0.0
  0
LINE
  5
61
100
AcDbEntity
100
AcDbLine
  8
0
 62
256
370
9
  6
ByLayer
 10
80.0
 20
95.0
 30
0.0
 11
80.0
 21
93.5
 31
0.0
  0
LINE
  5
62
100
AcDbEntity
100
AcDbLine
  8
0
 62
256
370
9
  6
ByLayer
 10
88.0
 20
93.5
 30
0.0
 11
88.0
 21
102.5
 31
0.0
  0
LINE
  5
63
100
AcDbEntity
100
AcDbLine
  8
0
 62
256
370
9
  6
ByLayer
 10
80.0
 20
96.5
 30
0.0
 11
82.5
 21
96.5
 31
0.0
  0
LINE
  5
64
100
AcDbEntity
100
AcDbLine
  8
0
 62
256
370
9
  6
ByLayer
 10
80.0
 20
100.5
 30
0.0
 11
81.0
 21
100.5
 31
0.0
  0
LINE
  5
65
100
AcDbEntity
100
AcDbLine
  8
0
 62
256
370
9
  6
ByLayer
 10
83.0
 20
93.5
 30
0.0
 11
83.0
 21
91.5
 31
0.0
  0
LINE
  5
66
100
AcDbEntity
100
AcDbLine
  8
0
 62
256
370
9
  6
ByLayer
 10
85.0
 20
91.5
 30
0.0
 11
85.0
 21
93.5
 31
0.0
  0
LINE
  5
67
100
AcDbEntity
100
AcDbLine
  8
0
 62
256
370
9
  6
ByLayer
 10
85.0732233047033617
 20
94.5732233047033617
 30
0.0
 11
85.4267766952966383
 21
94.9267766952966383
 31
0.0
  0
LINE
  5
68
100
AcDbEntity
100
AcDbLine
  8
0
 62
256
370
9
  6
ByLayer
 10
81.0
 20
100.0
 30
0.0
 11
81.0
 21
99.5
 31
0.0
  0
LINE
  5
69
100
AcDbEntity
100
AcDbLine
  8
0
 62
256
370
9
  6
ByLayer
 10
81.0
 20
99.5
 30
0.0
 11
87.0
 21
99.5
 31
0.0
  0
LINE
  5
6A
100
AcDbEntity
100
AcDbLine
  8
0
 62
256
370
9
  6
ByLayer
 10
81.5
 20
100.0
 30
0.0
 11
81.5
 21
99.5
 31
0.0
  0
LINE
  5
6B
100
AcDbEntity
100
AcDbLine
  8
0
 62
256
370
9
  6
ByLayer
 10
83.0
 20
109.5
 30
0.0
 11
83.0
 21
112.6666666666666714
 31
0.0
  0
LINE
  5
6C
100
AcDbEntity
100
AcDbLine
  8
0
 62
256
370
9
  6
ByLayer
 10
85.0
 20
109.5
 30
0.0
 11
85.0
 21
112.6666666666666714
 31
0.0
  0
LINE
  5
6D
100
AcDbEntity
100
AcDbLine
  8
0
 62
256
370
9
  6
ByLayer
 10
86.5
 20
99.5
 30
0.0
 11
86.5
 21
102.5
 31
0.0
  0
LINE
  5
6E
100
AcDbEntity
100
AcDbLine
  8
0
 62
256
370
9
  6
ByLayer
 10
87.0
 20
102.5
 30
0.0
 11
87.0
 21
99.5
 31
0.0
  0
LINE
  5
6F
100
AcDbEntity
100
AcDbLine
  8
0
 62
256
370
9
  6
ByLayer
 10
83.0
 20
108.0
 30
0.0
 11
85.0
 21
108.0
 31
0.0
  0
LINE
  5
70
100
AcDbEntity
100
AcDbLine
  8
0
 62
256
370
9
  6
ByLayer
 10
83.0
 20
108.0
 30
0.0
 11
83.75
 21
107.25
 31
0.0
  0
LINE
  5
71
100
AcDbEntity
100
AcDbLine
  8
0
 62
256
370
9
  6
ByLayer
 10
84.25
 20
107.25
 30
0.0
 11
85.0
 21
108.0
 31
0.0
  0
LINE
  5
72
100
AcDbEntity
100
AcDbLine
  8
0
 62
256
370
9
  6
ByLayer
 10
85.5
 20
106.0
 30
0.0
 11
85.5
 21
109.5
 31
0.0
  0
LINE
  5
73
100
AcDbEntity
100
AcDbLine
  8
0
 62
256
370
9
  6
ByLayer
 10
83.0
 20
108.0
 30
0.0
 11
83.0
 21
109.5
 31
0.0
  0
LINE
  5
74
100
AcDbEntity
100
AcDbLine
  8
0
 62
256
370
9
  6
ByLayer
 10
85.0
 20
108.0
 30
0.0
 11
85.0
 21
109.5
 31
0.0
  0
LINE
  5
75
100
AcDbEntity
100
AcDbLine
  8
0
 62
256
370
9
  6
ByLayer
 10
84.25
 20
107.25
 30
0.0
 11
84.25
 21
106.0
 31
0.0
  0
LINE
  5
76
100
AcDbEntity
100
AcDbLine
  8
0
 62
256
370
9
  6
ByLayer
 10
82.5
 20
107.1464466094067234
 30
0.0
 11
83.6464466094067234
 21
106.0
 31
0.0
  0
LINE
  5
77
100
AcDbEntity
100
AcDbLine
  8
0
 62
256
370
9
  6
ByLayer
 10
83.75
 20
96.0
 30
0.0
 11
83.75
 21
91.5
 31
0.0
  0
LINE
  5
78
100
AcDbEntity
100
AcDbLine
  8
0
 62
256
370
9
  6
ByLayer
 10
84.3535533905932766
 20
96.0
 30
0.0
 11
85.4267766952966383
 21
94.9267766952966383
 31
0.0
  0
LINE
  5
79
100
AcDbEntity
100
AcDbLine
  8
0
 62
256
370
9
  6
ByLayer
 10
85.5
 20
96.0
 30
0.0
 11
85.5
 21
98.5
 31
0.0
  0
LINE
  5
7A
100
AcDbEntity
100
AcDbLine
  8
0
 62
256
370
9
  6
ByLayer
 10
83.75
 20
107.25
 30
0.0
 11
83.75
 21
106.6035533905932766
 31
0.0
  0
LINE
  5
7B
100
AcDbEntity
100
AcDbLine
  8
0
 62
256
370
9
  6
ByLayer
 10
82.5
 20
107.8535533905932766
 30
0.0
 11
83.75
 21
106.6035533905932766
 31
0.0
  0
LINE
  5
7C
100
AcDbEntity
100
AcDbLine
  8
0
 62
256
370
9
  6
ByLayer
 10
84.25
 20
95.3964466094067234
 30
0.0
 11
84.25
 21
91.5
 31
0.0
  0
LINE
  5
7D
100
AcDbEntity
100
AcDbLine
  8
0
 62
256
370
9
  6
ByLayer
 10
84.25
 20
95.3964466094067234
 30
0.0
 11
85.0732233047033617
 21
94.5732233047033617
 31
0.0
  0
LINE
  5
7E
100
AcDbEntity
100
AcDbLine
  8
0
 62
256
370
9
  6
ByLayer
 10
81.0
 20
99.5
 30
0.0
 11
82.5
 21
98.5
 31
0.0
  0
LINE
  5
7F
100
AcDbEntity
100
AcDbLine
  8
0
 62
256
370
9
  6
ByLayer
 10
85.5
 20
98.5
 30
0.0
 11
87.0
 21
99.5
 31
0.0
  0
LINE
  5
80
100
AcDbEntity
100
AcDbLine
  8
0
 62
256
370
9
  6
ByLayer
 10
82.5
 20
98.5
 30
0.0
 11
85.5
 21
98.5
 31
0.0
  0
LINE
  5
81
100
AcDbEntity
100
AcDbLine
  8
0
 62
256
370
9
  6
ByLayer
 10
80.0
 20
93.5
 30
0.0
 11
83.0
 21
93.5
 31
0.0
  0
LINE
  5
82
100
AcDbEntity
100
AcDbLine
  8
0
 62
256
370
9
  6
ByLayer
 10
85.0
 20
93.5
 30
0.0
 11
88.0
 21
93.5
 31
0.0
  0
LINE
  5
83
100
AcDbEntity
100
AcDbLine
  8
0
 62
256
370
9
  6
ByLayer
 10
80.0
 20
120.0
 30
0.0
 11
81.0
 21
120.0
 31
0.0
  0
LINE
  5
84
100
AcDbEntity
100
AcDbLine
  8
0
 62
256
370
9
  6
ByLayer
 10
81.0
 20
120.0
 30
0.0
 11
87.0
 21
120.0
 31
0.0
  0
LINE
  5
85
100
AcDbEntity
100
AcDbLine
  8
0
 62
256
370
9
  6
ByLayer
 10
87.0
 20
120.0
 30
0.0
 11
88.0
 21
120.0
 31
0.0
  0
LINE
  5
86
100
AcDbEntity
100
AcDbLine
  8
0
 62
256
370
9
  6
ByLayer
 10
80.0
 20
102.5
 30
0.0
 11
81.0
 21
102.5
 31
0.0
  0
LINE
  5
87
100
AcDbEntity
100
AcDbLine
  8
0
 62
256
370
9
  6
ByLayer
 10
81.0
 20
102.5
 30
0.0
 11
81.5
 21
102.5
 31
0.0
  0
LINE
  5
88
100
AcDbEntity
100
AcDbLine
  8
0
 62
256
370
9
  6
ByLayer
 10
86.5
 20
102.5
 30
0.0
 11
87.0
 21
102.5
 31
0.0
  0
LINE
  5
89
100
AcDbEntity
100
AcDbLine
  8
0
 62
256
370
9
  6
ByLayer
 10
87.0
 20
102.5
 30
0.0
 11
88.0
 21
102.5
 31
0.0
  0
LINE
  5
8A
100
AcDbEntity
100
AcDbLine
  8
0
 62
256
370
9
  6
ByLayer
 10
81.0
 20
109.5
 30
0.0
 11
81.5
 21
109.5
 31
0.0
  0
LINE
  5
8B
100
AcDbEntity
100
AcDbLine
  8
0
 62
256
370
9
  6
ByLayer
 10
81.5
 20
109.5
 30
0.0
 11
82.5
 21
109.5
 31
0.0
  0
LINE
  5
8C
100
AcDbEntity
100
AcDbLine
  8
0
 62
256
370
9
  6
ByLayer
 10
82.5
 20
109.5
 30
0.0
 11
82.5
 21
107.8535533905932766
 31
0.0
  0
LINE
  5
8D
100
AcDbEntity
100
AcDbLine
  8
0
 62
256
370
9
  6
ByLayer
 10
82.5
 20
107.8535533905932766
 30
0.0
 11
82.5
 21
107.1464466094067234
 31
0.0
  0
LINE
  5
8E
100
AcDbEntity
100
AcDbLine
  8
0
 62
256
370
9
  6
ByLayer
 10
82.5
 20
107.1464466094067234
 30
0.0
 11
82.5
 21
106.0
 31
0.0
  0
LINE
  5
8F
100
AcDbEntity
100
AcDbLine
  8
0
 62
256
370
9
  6
ByLayer
 10
82.5
 20
106.0
 30
0.0
 11
83.6464466094067234
 21
106.0
 31
0.0
  0
LINE
  5
90
100
AcDbEntity
100
AcDbLine
  8
0
 62
256
370
9
  6
ByLayer
 10
83.6464466094067234
 20
106.0
 30
0.0
 11
84.25
 21
106.0
 31
0.0
  0
LINE
  5
91
100
AcDbEntity
100
AcDbLine
  8
0
 62
256
370
9
  6
ByLayer
 10
84.25
 20
106.0
 30
0.0
 11
85.5
 21
106.0
 31
0.0
  0
LINE
  5
92
100
AcDbEntity
100
AcDbLine
  8
0
 62
256
370
9
  6
ByLayer
 10
85.5
 20
109.5
 30
0.0
 11
86.5
 21
109.5
 31
0.0
  0
LINE
  5
93
100
AcDbEntity
100
AcDbLine
  8
0
 62
256
370
9
  6
ByLayer
 10
86.5
 20
109.5
 30
0.0
 11
87.0
 21
109.5
 31
0.0
  0
LINE
  5
94
100
AcDbEntity
100
AcDbLine
  8
0
 62
256
370
9
  6
ByLayer
 10
81.5
 20
102.5
 30
0.0
 11
86.5
 21
102.5
 31
0.0
  0
LINE
  5
95
100
AcDbEntity
100
AcDbLine
  8
0
 62
256
370
9
  6
ByLayer
 10
81.0
 20
102.5
 30
0.0
 11
81.0
 21
100.5
 31
0.0
  0
LINE
  5
96
100
AcDbEntity
100
AcDbLine
  8
0
 62
256
370
9
  6
ByLayer
 10
81.0
 20
100.5
 30
0.0
 11
81.0
 21
100.0
 31
0.0
  0
LINE
  5
97
100
AcDbEntity
100
AcDbLine
  8
0
 62
256
370
9
  6
ByLayer
 10
80.0
 20
102.5
 30
0.0
 11
80.0
 21
100.5
 31
0.0
  0
LINE
  5
98
100
AcDbEntity
100
AcDbLine
  8
0
 62
256
370
9
  6
ByLayer
 10
80.0
 20
100.5
 30
0.0
 11
80.0
 21
96.5
 31
0.0
  0
LINE
  5
99
100
AcDbEntity
100
AcDbLine
  8
0
 62
256
370
9
  6
ByLayer
 10
80.0
 20
96.5
 30
0.0
 11
80.0
 21
95.0
 31
0.0
  0
LINE
  5
9A
100
AcDbEntity
100
AcDbLine
  8
0
 62
256
370
9
  6
ByLayer
 10
84.3535533905932766
 20
96.0
 30
0.0
 11
85.5
 21
96.0
 31
0.0
  0
LINE
  5
9B
100
AcDbEntity
100
AcDbLine
  8
0
 62
256
370
9
  6
ByLayer
 10
82.5
 20
96.0
 30
0.0
 11
83.75
 21
96.0
 31
0.0
  0
LINE
  5
9C
100
AcDbEntity
100
AcDbLine
  8
0
 62
256
370
9
  6
ByLayer
 10
83.75
 20
96.0
 30
0.0
 11
84.3535533905932766
 21
96.0
 31
0.0
  0
LINE
  5
9D
100
AcDbEntity
100
AcDbLine
  8
0
 62
256
370
9
  6
ByLayer
 10
82.5
 20
98.5
 30
0.0
 11
82.5
 21
96.5
 31
0.0
  0
LINE
  5
9E
100
AcDbEntity
100
AcDbLine
  8
0
 62
256
370
9
  6
ByLayer
 10
82.5
 20
96.5
 30
0.0
 11
82.5
 21
96.0
 31
0.0
  0
LINE
  5
9F
100
AcDbEntity
100
AcDbLine
  8
0
 62
256
370
9
  6
ByLayer
 10
83.0
 20
91.5
 30
0.0
 11
83.75
 21
91.5
 31
0.0
  0
LINE
  5
A0
100
AcDbEntity
100
AcDbLine
  8
0
 62
256
370
9
  6
ByLayer
 10
83.75
 20
91.5
 30
0.0
 11
84.25
 21
91.5
 31
0.0
  0
LINE
  5
A1
100
AcDbEntity
100
AcDbLine
  8
0
 62
256
370
9
  6
ByLayer
 10
84.25
 20
91.5
 30
0.0
 11
85.0
 21
91.5
 31
0.0
  0
DIMENSION
  5
A2
100
AcDbEntity
  8
dimensions
 62
256
370
5
  6
ByLayer
100
AcDbDimension
 10
90.0
 20
112.5
 30
0.0
 11
89.125
 21
116.25
 31
0.0
 70
1
 71
5
 72
0
 41
1.0
 42
0.0
  1

  3
Standard
100
AcDbAlignedDimension
 13
88.0
 23
120.0
 33
0.0
 14
88.0
 24
112.5
 34
0.0
  0
DIMENSION
  5
A3
100
AcDbEntity
  8
dimensions
 62
256
370
5
  6
ByLayer
100
AcDbDimension
 10
92.0
 20
109.5
 30
0.0
 11
91.125
 21
114.75
 31
0.0
 70
0
 71
5
 72
0
 41
1.0
 42
0.0
  1

  3
Standard
100
AcDbAlignedDimension
 13
88.0
 23
120.0
 33
0.0
 14
87.0
 24
109.5
 34
0.0
 50
90.0
100
AcDbRotatedDimension
  0
DIMENSION
  5
A4
100
AcDbEntity
  8
dimensions
 62
256
370
5
  6
ByLayer
100
AcDbDimension
 10
88.0
 20
122.0
 30
0.0
 11
84.0
 21
122.875
 31
0.0
 70
0
 71
5
 72
1
 41
1.0
 42
0.0
  1

  3
Standard
100
AcDbAlignedDimension
 13
80.0
 23
120.0
 33
0.0
 14
88.0
 24
120.0
 34
0.0
 50
0.0
100
AcDbRotatedDimension
  0
LEADER
  5
A5
  8
dimensions
 62
256
370
5
  6
ByLayer
100
AcDbEntity
100
AcDbLeader
  3
Standard
 71
1
 72
0
 73
3
 74
0
 75
0
 40
1.0
 41
10.0
 76
3
 10
81.5130314990569218
 20
101.3017297120355096
 10
83.2048113980939519
 20
103.3011059563520035
 10
77.6680771830636729
 20
107.7099869053575958
  0
MTEXT
  5
A6
100
AcDbEntity
100
AcDbMText
  8
dimensions
 62
256
370
5
  6
ByLayer
 10
74.7971779604553717
 20
108.4789777685562484
 30
0.0
 40
1.0
 41
100.0
 71
1
 72
2
  1
D&T\~M6
  7
normallatin1
 50
0.0
 73
1
 44
1.0
  0
LEADER
  5
A7
  8
dimensions
 62
256
370
5
  6
ByLayer
100
AcDbEntity
100
AcDbLeader
  3
Standard
 71
1
 72
0
 73
3
 74
0
 75
0
 40
1.0
 41
10.0
 76
4
 10
79.9750497726596166
 20
97.7131056837751402
 10
72.4902053708594281
 20
94.6371422309805439
 10
72.4902053708594281
 20
94.6371422309805439
 10
72.336407198219689
 20
94.5858761734339737
  0
MTEXT
  5
A8
100
AcDbEntity
100
AcDbMText
  8
dimensions
 62
256
370
5
  6
ByLayer
 10
67.7224620190277875
 20
94.8422064611668532
 30
0.0
 40
1.0
 41
100.0
 71
1
 72
2
  1
3mm\~dia
  7
normallatin1
 50
0.0
 73
1
 44
1.0
  0
MTEXT
  5
A9
100
AcDbEntity
100
AcDbMText
  8
dimensions
 62
256
370
5
  6
ByLayer
 10
87.6649584046461143
 20
93.1504265621298231
 30
0.0
 40
1.0
 41
100.0
 71
1
 72
2
  1
A
  7
normallatin1
 50
0.0
 73
1
 44
1.0
  0
MTEXT
  5
AA
100
AcDbEntity
100
AcDbMText
  8
dimensions
 62
256
370
5
  6
ByLayer
 10
75.5661688236540101
 20
104.9416197978424634
 30
0.0
 40
1.0
 41
100.0
 71
1
 72
2
  1
A
  7
normallatin1
 50
0.0
 73
1
 44
1.0
  0
DIMENSION
  5
AB
100
AcDbEntity
  8
dimensions
 62
256
370
5
  6
ByLayer
100
AcDbDimension
 10
94.0
 20
106.0
 30
0.0
 11
93.125
 21
113.0
 31
0.0
 70
0
 71
5
 72
1
 41
1.0
 42
0.0
  1

  3
Standard
100
AcDbAlignedDimension
 13
88.0
 23
120.0
 33
0.0
 14
85.5
 24
106.0
 34
0.0
 50
90.0
100
AcDbRotatedDimension
  0
DIMENSION
  5
AC
100
AcDbEntity
  8
dimensions
 62
256
370
5
  6
ByLayer
100
AcDbDimension
 10
78.9506106435810722
 20
98.5
 30
0.0
 11
78.0756106435810722
 21
100.5
 31
0.0
 70
0
 71
5
 72
1
 41
1.0
 42
0.0
  1

  3
Standard
100
AcDbAlignedDimension
 13
80.0
 23
102.5
 33
0.0
 14
80.0
 24
98.5
 34
0.0
 50
90.0
100
AcDbRotatedDimension
  0
DIMENSION
  5
AD
100
AcDbEntity
  8
dimensions
 62
256
370
5
  6
ByLayer
100
AcDbDimension
 10
77.5021576209669831
 20
96.0
 30
0.0
 11
76.6271576209669831
 21
99.25
 31
0.0
 70
0
 71
5
 72
1
 41
1.0
 42
0.0
  1

  3
Standard
100
AcDbAlignedDimension
 13
80.0
 23
102.5
 33
0.0
 14
82.5
 24
96.0
 34
0.0
 50
90.0
100
AcDbRotatedDimension
  0
DIMENSION
  5
AE
100
AcDbEntity
  8
dimensions
 62
256
370
5
  6
ByLayer
100
AcDbDimension
 10
75.954495487214956
 20
93.5
 30
0.0
 11
75.079495487214956
 21
98.0
 31
0.0
 70
0
 71
5
 72
1
 41
1.0
 42
0.0
  1

  3
Standard
100
AcDbAlignedDimension
 13
80.0
 23
102.5
 33
0.0
 14
80.0
 24
93.5
 34
0.0
 50
90.0
100
AcDbRotatedDimension
  0
DIMENSION
  5
AF
100
AcDbEntity
  8
dimensions
 62
256
370
5
  6
ByLayer
100
AcDbDimension
 10
74.3869915312353385
 20
91.5
 30
0.0
 11
73.5119915312353385
 21
97.0
 31
0.0
 70
0
 71
5
 72
1
 41
1.0
 42
0.0
  1

  3
Standard
100
AcDbAlignedDimension
 13
80.0
 23
102.5
 33
0.0
 14
83.0
 24
91.5
 34
0.0
 50
90.0
100
AcDbRotatedDimension
  0
LEADER
  5
B0
  8
dimensions
 62
256
370
5
  6
ByLayer
100
AcDbEntity
100
AcDbLeader
  3
Standard
 71
1
 72
0
 73
3
 74
0
 75
0
 40
1.0
 41
10.0
 76
3
 10
85.5007256894049306
 20
107.8701015965166761
 10
92.5097968069666052
 20
102.8991291727140691
 10
92.5097968069666052
 20
102.8991291727140691
  0
MTEXT
  5
B1
100
AcDbEntity
100
AcDbMText
  8
dimensions
 62
256
370
5
  6
ByLayer
 10
90.5711175616835931
 20
102.9985486211901247
 30
0.0
 40
1.0
 41
100.0
 71
1
 72
0
  1
4mm\~dia
  7
normallatin1
 50
0.0
 73
1
 44
1.0
  0
MTEXT
  5
B2
100
AcDbEntity
100
AcDbMText
  8
dimensions
 62
256
370
5
  6
ByLayer
 10
72.7750362844702465
 20
119.5021770682147917
 30
0.0
 40
1.0
 41
100.0
 71
1
 72
0
  1
D&T\~M6
  7
normallatin1
 50
0.0
 73
1
 44
1.0
  0
LEADER
  5
B3
  8
dimensions
 62
256
370
5
  6
ByLayer
100
AcDbEntity
100
AcDbLeader
  3
Standard
 71
1
 72
0
 73
3
 74
0
 75
0
 40
1.0
 41
10.0
 76
2
 10
85.1527576197387503
 20
105.9811320754716917
 10
90.6208272859216208
 20
99.320029027576183
  0
LEADER
  5
B4
  8
dimensions
 62
256
370
5
  6
ByLayer
100
AcDbEntity
100
AcDbLeader
  3
Standard
 71
1
 72
0
 73
3
 74
0
 75
0
 40
1.0
 41
10.0
 76
3
 10
84.9539187227866393
 20
96.0391872278664636
 10
84.3574020319303202
 20
97.5801886792452819
 10
90.6705370101596486
 20
97.4807692307692264
  0
MTEXT
  5
B5
100
AcDbEntity
100
AcDbMText
  8
dimensions
 62
256
370
5
  6
ByLayer
 10
90.8693759071117455
 20
99.7674165457184188
 30
0.0
 40
1.0
 41
100.0
 71
1
 72
0
  1
F
  7
normallatin1
 50
0.0
 73
1
 44
1.0
  0
MTEXT
  5
B6
100
AcDbEntity
100
AcDbMText
  8
dimensions
 62
256
370
5
  6
ByLayer
 10
91.0682148040638566
 20
97.7790275761973788
 30
0.0
 40
1.0
 41
100.0
 71
1
 72
0
  1
F
  7
normallatin1
 50
0.0
 73
1
 44
1.0
  0
MTEXT
  5
B7
100
AcDbEntity
100
AcDbMText
  8
dimensions
 62
256
370
5
  6
ByLayer
 10
75.7576197387518135
 20
113.8849782293178379
 30
0.0
 40
1.0
 41
100.0
 71
1
 72
0
  1
A
  7
normallatin1
 50
0.0
 73
1
 44
1.0
  0
MTEXT
  5
B8
100
AcDbEntity
100
AcDbMText
  8
dimensions
 62
256
370
5
  6
ByLayer
 10
85.003628447024667
 20
104.3904208998548597
 30
0.0
 40
1.0
 41
100.0
 71
1
 72
0
  1
A
  7
normallatin1
 50
0.0
 73
1
 44
1.0
  0
LINE
  5
B9
100
AcDbEntity
100
AcDbLine
  8
centres
 62
256
370
5
  6
DASHDOTX2
 10
84.0
 20
121.0
 30
0.0
 11
84.0
 21
89.0
 31
0.0
  0
LINE
  5
BA
100
AcDbEntity
100
AcDbLine
  8
centres
 62
256
370
5
  6
DASHDOTX2
 10
76.4644660940672338
 20
103.5355339059327662
 30
0.0
 11
87.5355339059327662
 21
92.4644660940672338
 31
0.0
  0
LINE
  5
BB
100
AcDbEntity
100
AcDbLine
  8
centres
 62
256
370
5
  6
DASHDOTX2
 10
76.4644660940672338
 20
113.5355339059327662
 30
0.0
 11
86.0
 21
104.0
 31
0.0
  0
LINE
  5
BC
100
AcDbEntity
100
AcDbLine
  8
centres
 62
256
370
5
  6
DASHDOTX2
 10
78.5
 20
98.5
 30
0.0
 11
83.5
 21
98.5
 31
0.0
  0
LEADER
  5
BD
  8
centres
 62
256
370
-1
  6
ByLayer
100
AcDbEntity
100
AcDbLeader
  3
Standard
 71
1
 72
0
 73
3
 74
0
 75
0
 40
1.0
 41
10.0
 76
3
 10
86.4452104499274299
 20
117.7623367198838764
 10
80.9771407837445452
 20
120.8940493468795268
 10
77.3980406386066733
 20
119.5518867924528195
  0
ENDSEC
  0
SECTION
  2
OBJECTS
  0
DICTIONARY
  5
C
100
AcDbDictionary
280
0
281
1
  3
ACAD_GROUP
350
D
  3
ACAD_LAYOUT
350
1A
  3
ACAD_MLINESTYLE
350
17
  3
ACAD_PLOTSETTINGS
350
19
  3
ACAD_PLOTSTYLENAME
350
E
  3
AcDbVariableDictionary
350
BE
  0
DICTIONARY
  5
D
100
AcDbDictionary
280
0
281
1
  0
ACDBDICTIONARYWDFLT
  5
E
100
AcDbDictionary
281
1
  3
Normal
350
F
100
AcDbDictionaryWithDefault
340
F
  0
ACDBPLACEHOLDER
  5
F
  0
DICTIONARY
  5
17
100
AcDbDictionary
280
0
281
1
  3
Standard
350
18
  0
MLINESTYLE
  5
18
100
AcDbMlineStyle
  2
STANDARD
 70
0
  3

 62
256
 51
90.0
 52
90.0
 71
2
 49
0.5
 62
256
  6
BYLAYER
 49
-0.5
 62
256
  6
BYLAYER
  0
DICTIONARY
  5
19
100
AcDbDictionary
280
0
281
1
  0
DICTIONARY
  5
1A
100
AcDbDictionary
281
1
  3
Layout1
350
1E
  3
Layout2
350
26
  3
Model
350
22
  0
LAYOUT
  5
1E
100
AcDbPlotSettings
  1

  2
C:\Program Files\AutoCAD 2002\plotters\DWF ePlot (optimized for plotting).pc3
  4

  6

 40
0.0
 41
0.0
 42
0.0
 43
0.0
 44
0.0
 45
0.0
 46
0.0
 47
0.0
 48
0.0
 49
0.0
140
0.0
141
0.0
142
1.0
143
1.0
 70
688
 72
0
 73
0
 74
5
  7

 75
16
147
1.0
148
0.0
149
0.0
100
AcDbLayout
  1
Layout1
 70
1
 71
1
 10
0.0
 20
0.0
 11
420.0
 21
297.0
 12
0.0
 22
0.0
 32
0.0
 14
100000000000000000000.0
 24
100000000000000000000.0
 34
100000000000000000000.0
 15
-100000000000000000000.0
 25
-100000000000000000000.0
 35
-100000000000000000000.0
146
0.0
 13
0.0
 23
0.0
 33
0.0
 16
1.0
 26
0.0
 36
0.0
 17
0.0
 27
1.0
 37
0.0
 76
0
330
1B
  0
LAYOUT
  5
22
100
AcDbPlotSettings
  1

  2
C:\Program Files\AutoCAD 2002\plotters\DWF ePlot (optimized for plotting).pc3
  4

  6

 40
0.0
 41
0.0
 42
0.0
 43
0.0
 44
0.0
 45
0.0
 46
0.0
 47
0.0
 48
0.0
 49
0.0
140
0.0
141
0.0
142
1.0
143
1.0
 70
1712
 72
0
 73
0
 74
0
  7

 75
0
147
1.0
148
0.0
149
0.0
100
AcDbLayout
  1
Model
 70
1
 71
0
 10
0.0
 20
0.0
 11
12.0
 21
9.0
 12
0.0
 22
0.0
 32
0.0
 14
0.0
 24
0.0
 34
0.0
 15
0.0
 25
0.0
 35
0.0
146
0.0
 13
0.0
 23
0.0
 33
0.0
 16
1.0
 26
0.0
 36
0.0
 17
0.0
 27
1.0
 37
0.0
 76
0
330
1F
  0
LAYOUT
  5
26
100
AcDbPlotSettings
  1

  2
C:\Program Files\AutoCAD 2002\plotters\DWF ePlot (optimized for plotting).pc3
  4

  6

 40
0.0
 41
0.0
 42
0.0
 43
0.0
 44
0.0
 45
0.0
 46
0.0
 47
0.0
 48
0.0
 49
0.0
140
0.0
141
0.0
142
1.0
143
1.0
 70
688
 72
0
 73
0
 74
5
  7

 75
16
147
1.0
148
0.0
149
0.0
100
AcDbLayout
  1
Layout2
 70
1
 71
2
 10
0.0
 20
0.0
 11
12.0
 21
9.0
 12
0.0
 22
0.0
 32
0.0
 14
0.0
 24
0.0
 34
0.0
 15
0.0
 25
0.0
 35
0.0
146
0.0
 13
0.0
 23
0.0
 33
0.0
 16
1.0
 26
0.0
 36
0.0
 17
0.0
 27
1.0
 37
0.0
 76
0
330
23
  0
DICTIONARY
  5
BE
100
AcDbDictionary
281
1
  3
DIMASSOC
350
C0
  3
HIDETEXT
350
BF
  0
DICTIONARYVAR
  5
BF
100
DictionaryVariables
280
0
  1
2
  0
DICTIONARYVAR
  5
C0
100
DictionaryVariables
280
0
  1
1
  0
ENDSEC
  0
EOF
